<?xml version="1.0" ?><svg viewBox="0 0 512 512" xmlns="http://www.w3.org/2000/svg"><title/><g id="Receipt"><path d="M273.5488,234.5911h-58.75a8,8,0,0,1,0-16h58.75a15.6484,15.6484,0,1,0,0-31.2968H238.4473a31.6485,31.6485,0,1,1,0-63.2969h58.7539a8,8,0,0,1,0,16H238.4473a15.6485,15.6485,0,1,0,0,31.2969h35.1015a31.6484,31.6484,0,1,1,0,63.2968Z"/><path d="M255.998,255.2318a7.998,7.998,0,0,1-8-8V111.3568a8,8,0,0,1,16,0v135.875A7.9979,7.9979,0,0,1,255.998,255.2318Z"/><path d="M413.5215,463.9974a7.9983,7.9983,0,0,1-5.6563-2.3438L382.0176,435.81,356.17,461.6536a7.9971,7.9971,0,0,1-11.3125,0L319.01,435.81l-25.8477,25.8437a7.9971,7.9971,0,0,1-11.3125,0L256.002,435.81,230.15,461.6536a7.9971,7.9971,0,0,1-11.3125,0L192.99,435.81l-25.8476,25.8437a7.9971,7.9971,0,0,1-11.3125,0L129.9824,435.81l-25.8476,25.8437a7.9993,7.9993,0,0,1-13.6563-5.6562v-400a7.9979,7.9979,0,0,1,8-8h315.043a7.9979,7.9979,0,0,1,8,8v400a8,8,0,0,1-8,8Zm-220.5313-47.5a7.9741,7.9741,0,0,1,5.6563,2.3437l25.8476,25.8438,25.8516-25.8438a7.9971,7.9971,0,0,1,11.3125,0l25.8477,25.8438,25.8476-25.8438a7.9971,7.9971,0,0,1,11.3125,0l25.8477,25.8438,25.8476-25.8438a7.9971,7.9971,0,0,1,11.3125,0l17.8477,17.8438V63.9974H106.4785V436.6849l17.8477-17.8438a7.9971,7.9971,0,0,1,11.3125,0l25.8476,25.8438,25.8477-25.8438A7.974,7.974,0,0,1,192.99,416.4974Z"/><path d="M349.5215,316.9974H162.4785a8,8,0,0,1,0-16h187.043a8,8,0,0,1,0,16Z"/><path d="M349.5215,369.3333H162.4785a8,8,0,1,1,0-16h187.043a8,8,0,1,1,0,16Z"/></g></svg>